<svg viewBox="0 0 512 512" xmlns="http://www.w3.org/2000/svg">
    <defs>
        <radialGradient id="bg" cx="50%" cy="50%" r="50%">
            <stop offset="0%" stop-color="#1a1a1a"/>
            <stop offset="100%" stop-color="#000000"/>
        </radialGradient>
        <radialGradient id="halo" cx="50%" cy="50%" r="50%">
            <stop offset="0%" stop-color="#d4af37" stop-opacity="0.28"/>
            <stop offset="70%" stop-color="#d4af37" stop-opacity="0.08"/>
            <stop offset="100%" stop-color="#d4af37" stop-opacity="0"/>
        </radialGradient>
    </defs>
    <rect width="512" height="512" fill="url(#bg)"/>
    <circle cx="256" cy="256" r="220" fill="url(#halo)"/>
    <circle cx="256" cy="256" r="198" fill="none" stroke="#d4af37" stroke-width="4"/>
    <polygon points="256,86 366,154 332,308 180,308 146,154" fill="none" stroke="#d4af37" stroke-width="3" opacity="0.95"/>
    <rect x="212" y="212" width="88" height="88" transform="rotate(45 256 256)" fill="none" stroke="#d4af37" stroke-width="2" opacity="0.9"/>
    <g stroke="#d4af37" stroke-width="2" opacity="0.75">
        <line x1="256" y1="38" x2="256" y2="70"/>
        <line x1="256" y1="442" x2="256" y2="474"/>
        <line x1="38" y1="256" x2="70" y2="256"/>
        <line x1="442" y1="256" x2="474" y2="256"/>
    </g>
    <circle cx="256" cy="256" r="12" fill="#d4af37"/>
    <circle cx="256" cy="256" r="5" fill="#0a0a0a"/>
    <circle cx="256" cy="256" r="46" fill="none" stroke="#d4af37" stroke-width="1.2" opacity="0.35"/>
    <circle cx="256" cy="86" r="5" fill="#d4af37" opacity="0.85"/>
    <circle cx="360" cy="156" r="5" fill="#d4af37" opacity="0.85"/>
    <circle cx="332" cy="302" r="5" fill="#d4af37" opacity="0.85"/>
    <circle cx="180" cy="302" r="5" fill="#d4af37" opacity="0.85"/>
    <circle cx="152" cy="156" r="5" fill="#d4af37" opacity="0.85"/>
</svg>
